<svg width="181" height="57" viewBox="0 0 181 57" fill="none" xmlns="http://www.w3.org/2000/svg">
<path d="M108.052 48.14V50H74.692V48.56L104.632 9.86H74.992V8H107.392V9.44L77.452 48.14H108.052Z" fill="black"/>
<path d="M60.9202 37.712V39H45.1282V37.992L58.6522 20.688H45.2962V19.4H60.6122V20.408L47.1162 37.712H60.9202ZM78.2938 33.484H66.9257L64.4337 39H62.8937L71.9098 19.4H73.3378L82.3538 39H80.8138L78.2938 33.484ZM77.7618 32.28L72.6098 20.968L67.4858 32.28H77.7618ZM86.7519 19.4H88.1799V37.712H99.4639V39H86.7519V19.4ZM117.495 37.712V39H103.971V19.4H117.075V20.688H105.399V28.416H115.843V29.676H105.399V37.712H117.495ZM128.693 39.14C127.256 39.14 125.884 38.8973 124.577 38.412C123.289 37.908 122.281 37.264 121.553 36.48L122.197 35.416C122.888 36.144 123.812 36.7413 124.969 37.208C126.145 37.656 127.377 37.88 128.665 37.88C130.532 37.88 131.941 37.5253 132.893 36.816C133.845 36.1067 134.321 35.1827 134.321 34.044C134.321 33.1667 134.069 32.4667 133.565 31.944C133.061 31.4213 132.436 31.02 131.689 30.74C130.943 30.46 129.935 30.1707 128.665 29.872C127.228 29.5173 126.071 29.172 125.193 28.836C124.335 28.5 123.597 27.9867 122.981 27.296C122.384 26.5867 122.085 25.644 122.085 24.468C122.085 23.516 122.337 22.648 122.841 21.864C123.345 21.0613 124.111 20.4267 125.137 19.96C126.183 19.4933 127.48 19.26 129.029 19.26C130.112 19.26 131.176 19.4187 132.221 19.736C133.267 20.0533 134.172 20.4827 134.937 21.024L134.405 22.172C133.621 21.6307 132.753 21.22 131.801 20.94C130.868 20.66 129.944 20.52 129.029 20.52C127.219 20.52 125.847 20.884 124.913 21.612C123.98 22.34 123.513 23.2827 123.513 24.44C123.513 25.3173 123.765 26.0173 124.269 26.54C124.773 27.0627 125.399 27.464 126.145 27.744C126.892 28.024 127.909 28.3227 129.197 28.64C130.635 28.9947 131.783 29.34 132.641 29.676C133.5 30.012 134.228 30.5253 134.825 31.216C135.441 31.888 135.749 32.8027 135.749 33.96C135.749 34.912 135.488 35.78 134.965 36.564C134.461 37.348 133.677 37.9733 132.613 38.44C131.549 38.9067 130.243 39.14 128.693 39.14Z" fill="white"/>
</svg>
